<svg width="220" height="42" viewBox="0 0 220 42" fill="none" xmlns="http://www.w3.org/2000/svg">
<path d="M34.5724 21.0002C34.5724 28.4964 28.495 34.5732 20.9983 34.5732C13.5015 34.5732 7.42413 28.4964 7.42413 21.0002C7.42413 13.504 13.5015 7.42708 20.9983 7.42708C28.495 7.42708 34.5724 13.504 34.5724 21.0002Z" fill="url(#paint0_linear_1319_6783)"/>
<path fill-rule="evenodd" clip-rule="evenodd" d="M41.8655 23.3727C41.7695 24.2172 40.9586 24.7664 40.1233 24.6088C39.288 24.4511 38.7456 23.6463 38.831 22.8006C39.0434 20.6973 38.8823 18.5689 38.3512 16.5143C37.82 14.4598 36.9292 12.52 35.724 10.7832C35.2394 10.0848 35.3237 9.11797 35.978 8.5753C36.6322 8.03263 37.6077 8.12002 38.101 8.81221C39.5906 10.902 40.687 13.2509 41.3315 15.7439C41.9761 18.2369 42.1555 20.8228 41.8655 23.3727Z" fill="white"/>
<path fill-rule="evenodd" clip-rule="evenodd" d="M33.0222 3.78227C33.7191 4.2689 33.8159 5.24338 33.2795 5.90278C32.7431 6.56218 31.777 6.65582 31.074 6.17799C30.0437 5.47773 28.9432 4.88677 27.7903 4.41473C27.0036 4.09263 26.5481 3.23564 26.8015 2.42431C27.055 1.61299 27.9209 1.1554 28.7115 1.46757C30.2337 2.06856 31.6804 2.84541 33.0222 3.78227Z" fill="white"/>
<path fill-rule="evenodd" clip-rule="evenodd" d="M21.6872 0.0113128C22.5368 0.0392123 23.1495 0.803304 23.0594 1.64852C22.9694 2.49373 22.2106 3.09897 21.3607 3.08177C17.9275 3.01229 14.5453 3.93103 11.6192 5.72793C10.8948 6.17275 9.93403 6.03462 9.4287 5.35113C8.92337 4.66763 9.06514 3.69862 9.78384 3.24471C13.338 1.00003 17.4858 -0.126656 21.6872 0.0113128Z" fill="white"/>
<path fill-rule="evenodd" clip-rule="evenodd" d="M4.50627 7.99814C5.03257 7.33066 6.01111 7.29062 6.63832 7.86434C7.26552 8.43807 7.30291 9.40788 6.78505 10.0819C5.66232 11.5433 4.77164 13.1692 4.14457 14.902C3.85534 15.7013 3.0179 16.192 2.1967 15.9724C1.3755 15.7528 0.882387 14.9067 1.16154 14.1038C1.92893 11.8968 3.05943 9.83307 4.50627 7.99814Z" fill="white"/>
<path fill-rule="evenodd" clip-rule="evenodd" d="M0.000239147 21.3809C-0.0151756 20.531 0.716781 19.8804 1.56554 19.9273C2.41431 19.9741 3.05746 20.701 3.08357 21.5506C3.11663 22.6261 3.24649 23.6965 3.47159 24.7488C3.64939 25.58 3.19871 26.4395 2.38577 26.688C1.57283 26.9364 0.706527 26.4796 0.518273 25.6508C0.199899 24.249 0.0263084 22.8181 0.000239147 21.3809Z" fill="white"/>
<path fill-rule="evenodd" clip-rule="evenodd" d="M3.25019 32.2273C2.79575 31.5089 3.08344 30.5728 3.83316 30.1722C4.58288 29.7716 5.51 30.059 5.97345 30.7715C8.02348 33.9234 11.0219 36.3627 14.5548 37.7237C18.0877 39.0848 21.9478 39.2876 25.5828 38.3259C26.4046 38.1084 27.2849 38.5174 27.572 39.3174C27.8591 40.1174 27.4443 41.0046 26.6253 41.2324C22.2918 42.4375 17.6705 42.2227 13.4481 40.596C9.22562 38.9694 5.65482 36.0282 3.25019 32.2273Z" fill="white"/>
<path fill-rule="evenodd" clip-rule="evenodd" d="M33.0931 38.1681C32.3982 38.6576 31.4489 38.4167 31.0115 37.6879C30.5742 36.959 30.8152 36.0188 31.504 35.5206C33.786 33.8699 35.6472 31.704 36.9359 29.1997C37.3248 28.4439 38.218 28.0641 39.0045 28.3867C39.7909 28.7093 40.1719 29.6115 39.7926 30.3722C38.2399 33.4854 35.9374 36.1647 33.0931 38.1681Z" fill="white"/>
<path d="M62.3749 26.5553H68.1058V29.9324H58V11.9722H62.3749V26.5553Z" fill="white"/>
<path d="M76.6909 30.1371C75.2923 30.1371 74.0302 29.8386 72.9045 29.2416C71.7958 28.6446 70.9174 27.7918 70.2693 26.6832C69.6382 25.5745 69.3227 24.2783 69.3227 22.7944C69.3227 21.3275 69.6467 20.0398 70.2949 18.9311C70.943 17.8054 71.8299 16.9441 72.9556 16.3471C74.0813 15.7502 75.3435 15.4517 76.7421 15.4517C78.1407 15.4517 79.4029 15.7502 80.5286 16.3471C81.6543 16.9441 82.5412 17.8054 83.1893 18.9311C83.8375 20.0398 84.1615 21.3275 84.1615 22.7944C84.1615 24.2612 83.829 25.5575 83.1638 26.6832C82.5156 27.7918 81.6202 28.6446 80.4774 29.2416C79.3517 29.8386 78.0895 30.1371 76.6909 30.1371ZM76.6909 26.3506C77.5267 26.3506 78.2345 26.0436 78.8144 25.4295C79.4114 24.8155 79.7099 23.9371 79.7099 22.7944C79.7099 21.6516 79.4199 20.7732 78.84 20.1592C78.2772 19.5452 77.5779 19.2381 76.7421 19.2381C75.8893 19.2381 75.1815 19.5452 74.6186 20.1592C74.0557 20.7561 73.7743 21.6345 73.7743 22.7944C73.7743 23.9371 74.0472 24.8155 74.593 25.4295C75.1559 26.0436 75.8552 26.3506 76.6909 26.3506Z" fill="white"/>
<path d="M85.6127 22.7944C85.6127 21.3105 85.9111 20.0142 86.5081 18.9055C87.1221 17.7969 87.9664 16.9441 89.041 16.3471C90.1326 15.7502 91.3777 15.4517 92.7763 15.4517C94.5672 15.4517 96.0596 15.9207 97.2535 16.8588C98.4645 17.7969 99.2576 19.1188 99.6329 20.8244H94.9765C94.5842 19.7328 93.8252 19.187 92.6995 19.187C91.8979 19.187 91.2583 19.5025 90.7807 20.1336C90.3031 20.7476 90.0643 21.6345 90.0643 22.7944C90.0643 23.9542 90.3031 24.8496 90.7807 25.4807C91.2583 26.0947 91.8979 26.4017 92.6995 26.4017C93.8252 26.4017 94.5842 25.8559 94.9765 24.7644H99.6329C99.2576 26.4359 98.4645 27.7492 97.2535 28.7043C96.0425 29.6595 94.5501 30.1371 92.7763 30.1371C91.3777 30.1371 90.1326 29.8386 89.041 29.2416C87.9664 28.6446 87.1221 27.7918 86.5081 26.6832C85.9111 25.5745 85.6127 24.2783 85.6127 22.7944Z" fill="white"/>
<path d="M101.103 22.7688C101.103 21.3019 101.376 20.0142 101.922 18.9055C102.485 17.7969 103.244 16.9441 104.199 16.3471C105.154 15.7502 106.22 15.4517 107.397 15.4517C108.403 15.4517 109.282 15.6563 110.032 16.0657C110.8 16.475 111.388 17.0123 111.797 17.6775V15.6563H116.172V29.9324H111.797V27.9112C111.371 28.5764 110.774 29.1137 110.006 29.523C109.256 29.9324 108.378 30.1371 107.371 30.1371C106.211 30.1371 105.154 29.8386 104.199 29.2416C103.244 28.6276 102.485 27.7662 101.922 26.6576C101.376 25.5319 101.103 24.2356 101.103 22.7688ZM111.797 22.7944C111.797 21.7028 111.49 20.8414 110.876 20.2103C110.279 19.5793 109.546 19.2637 108.676 19.2637C107.806 19.2637 107.064 19.5793 106.45 20.2103C105.853 20.8244 105.555 21.6772 105.555 22.7688C105.555 23.8604 105.853 24.7302 106.45 25.3784C107.064 26.0095 107.806 26.325 108.676 26.325C109.546 26.325 110.279 26.0095 110.876 25.3784C111.49 24.7473 111.797 23.886 111.797 22.7944Z" fill="white"/>
<path d="M123.712 11V29.9324H119.337V11H123.712Z" fill="white"/>
<path d="M152.644 11.9722V29.9324H148.269V19.1614L144.252 29.9324H140.722L136.679 19.1358V29.9324H132.304V11.9722H137.472L142.513 24.4062L147.501 11.9722H152.644Z" fill="white"/>
<path d="M162.288 30.1371C160.89 30.1371 159.628 29.8386 158.502 29.2416C157.393 28.6446 156.515 27.7918 155.867 26.6832C155.236 25.5745 154.92 24.2783 154.92 22.7944C154.92 21.3275 155.244 20.0398 155.892 18.9311C156.54 17.8054 157.427 16.9441 158.553 16.3471C159.679 15.7502 160.941 15.4517 162.34 15.4517C163.738 15.4517 165 15.7502 166.126 16.3471C167.252 16.9441 168.139 17.8054 168.787 18.9311C169.435 20.0398 169.759 21.3275 169.759 22.7944C169.759 24.2612 169.426 25.5575 168.761 26.6832C168.113 27.7918 167.218 28.6446 166.075 29.2416C164.949 29.8386 163.687 30.1371 162.288 30.1371ZM162.288 26.3506C163.124 26.3506 163.832 26.0436 164.412 25.4295C165.009 24.8155 165.307 23.9371 165.307 22.7944C165.307 21.6516 165.017 20.7732 164.437 20.1592C163.875 19.5452 163.175 19.2381 162.34 19.2381C161.487 19.2381 160.779 19.5452 160.216 20.1592C159.653 20.7561 159.372 21.6345 159.372 22.7944C159.372 23.9371 159.645 24.8155 160.19 25.4295C160.753 26.0436 161.453 26.3506 162.288 26.3506Z" fill="white"/>
<path d="M180.779 15.5028C182.45 15.5028 183.781 16.0486 184.77 17.1402C185.776 18.2148 186.279 19.6987 186.279 21.5919V29.9324H181.93V22.1803C181.93 21.2252 181.683 20.4832 181.188 19.9545C180.693 19.4258 180.028 19.1614 179.192 19.1614C178.357 19.1614 177.691 19.4258 177.197 19.9545C176.702 20.4832 176.455 21.2252 176.455 22.1803V29.9324H172.08V15.6563H176.455V17.5496C176.898 16.9185 177.495 16.4239 178.246 16.0657C178.996 15.6905 179.841 15.5028 180.779 15.5028Z" fill="white"/>
<path d="M202.777 22.5641C202.777 22.9735 202.751 23.3999 202.7 23.8433H192.799C192.867 24.7302 193.149 25.4125 193.643 25.8901C194.155 26.3506 194.777 26.5808 195.511 26.5808C196.602 26.5808 197.361 26.1203 197.788 25.1993H202.444C202.205 26.1374 201.77 26.9817 201.139 27.7321C200.525 28.4826 199.749 29.071 198.811 29.4974C197.873 29.9239 196.824 30.1371 195.664 30.1371C194.266 30.1371 193.021 29.8386 191.929 29.2416C190.837 28.6446 189.985 27.7918 189.371 26.6832C188.757 25.5745 188.45 24.2783 188.45 22.7944C188.45 21.3105 188.748 20.0142 189.345 18.9055C189.959 17.7969 190.812 16.9441 191.903 16.3471C192.995 15.7502 194.249 15.4517 195.664 15.4517C197.046 15.4517 198.274 15.7416 199.348 16.3215C200.423 16.9014 201.259 17.7287 201.856 18.8032C202.47 19.8778 202.777 21.1314 202.777 22.5641ZM198.3 21.4128C198.3 20.6623 198.044 20.0654 197.532 19.6219C197.02 19.1784 196.381 18.9567 195.613 18.9567C194.88 18.9567 194.257 19.1699 193.746 19.5963C193.251 20.0227 192.944 20.6282 192.824 21.4128H198.3Z" fill="white"/>
<path d="M219.668 15.6563L210.713 36.7122H206.006L209.281 29.4463L203.473 15.6563H208.36L211.66 24.5853L214.935 15.6563H219.668Z" fill="white"/>
<defs>
<linearGradient id="paint0_linear_1319_6783" x1="9.06239" y1="8.9092" x2="33.2445" y2="31.2988" gradientUnits="userSpaceOnUse">
<stop stop-color="#FBA367"/>
<stop offset="1" stop-color="#EF6100"/>
</linearGradient>
</defs>
</svg>
