<svg width="40" height="40" viewBox="0 0 40 40" fill="none" xmlns="http://www.w3.org/2000/svg">
<path d="M34.121 20.0001C34.121 27.7988 27.7989 34.1209 20.0002 34.1209C12.2015 34.1209 5.87939 27.7988 5.87939 20.0001C5.87939 12.2014 12.2015 5.87927 20.0002 5.87927C27.7989 5.87927 34.121 12.2014 34.121 20.0001Z" fill="#FBA367"/>
<path fill-rule="evenodd" clip-rule="evenodd" d="M20.0002 31.6818C26.4518 31.6818 31.682 26.4517 31.682 20.0001C31.682 13.5484 26.4518 8.3183 20.0002 8.3183C13.5485 8.3183 8.31842 13.5484 8.31842 20.0001C8.31842 26.4517 13.5485 31.6818 20.0002 31.6818ZM20.0002 34.1209C27.7989 34.1209 34.121 27.7988 34.121 20.0001C34.121 12.2014 27.7989 5.87927 20.0002 5.87927C12.2015 5.87927 5.87939 12.2014 5.87939 20.0001C5.87939 27.7988 12.2015 34.1209 20.0002 34.1209Z" fill="#202225"/>
<path fill-rule="evenodd" clip-rule="evenodd" d="M14.3988 6.99163C16.0862 6.27901 17.9411 5.88501 19.888 5.88501C27.6867 5.88501 34.0088 12.2071 34.0088 20.0058C34.0088 27.8045 27.6867 34.1266 19.888 34.1266C17.9411 34.1266 16.0862 33.7326 14.3988 33.02C19.4708 30.878 23.0304 25.8576 23.0304 20.0058C23.0304 14.154 19.4708 9.13357 14.3988 6.99163Z" fill="#EF6100"/>
<path fill-rule="evenodd" clip-rule="evenodd" d="M20.0001 31.2196C26.1965 31.2196 31.2196 26.1965 31.2196 20.0001C31.2196 13.8037 26.1965 8.78059 20.0001 8.78059C13.8037 8.78059 8.78059 13.8037 8.78059 20.0001C8.78059 26.1965 13.8037 31.2196 20.0001 31.2196ZM20.0001 34.1464C27.8129 34.1464 34.1464 27.8129 34.1464 20.0001C34.1464 12.1873 27.8129 5.85376 20.0001 5.85376C12.1873 5.85376 5.85376 12.1873 5.85376 20.0001C5.85376 27.8129 12.1873 34.1464 20.0001 34.1464Z" fill="#202225"/>
<path fill-rule="evenodd" clip-rule="evenodd" d="M36.5206 15.6917C35.8875 13.2639 34.727 11.0054 33.1218 9.07709L35.3713 7.20459C37.2517 9.46351 38.6111 12.1091 39.3527 14.9531C40.0944 17.7972 40.2001 20.7697 39.6624 23.6593L36.785 23.1238C37.244 20.6571 37.1538 18.1195 36.5206 15.6917Z" fill="#202225"/>
<path fill-rule="evenodd" clip-rule="evenodd" d="M28.7656 34.6512C32.0721 32.673 34.6122 29.6345 35.973 26.0298L38.7112 27.0635C37.1171 31.2862 34.1416 34.8455 30.2683 37.1628L28.7656 34.6512Z" fill="#202225"/>
<path fill-rule="evenodd" clip-rule="evenodd" d="M4.61726 27.4072C6.514 31.3463 9.84957 34.4076 13.9365 35.9603C18.0234 37.513 22.5503 37.4387 26.5841 35.7527L27.7128 38.4531C22.9875 40.4281 17.6846 40.5152 12.8971 38.6963C8.1095 36.8775 4.20212 33.2913 1.98022 28.677L4.61726 27.4072Z" fill="#202225"/>
<path fill-rule="evenodd" clip-rule="evenodd" d="M2.95397 19.0378C2.8421 21.0194 3.07662 23.0054 3.647 24.9065L0.843633 25.7476C0.175472 23.5206 -0.0992549 21.1942 0.0317952 18.8728L2.95397 19.0378Z" fill="#202225"/>
<path fill-rule="evenodd" clip-rule="evenodd" d="M7.38791 8.49251C5.54185 10.5158 4.20964 12.9535 3.50373 15.5998L0.675781 14.8455C1.5027 11.7455 3.06329 8.88988 5.22583 6.51978L7.38791 8.49251Z" fill="#202225"/>
<path fill-rule="evenodd" clip-rule="evenodd" d="M22.2261 3.07267C17.7367 2.48224 13.1966 3.6994 9.60456 6.4564L7.82251 4.13463C12.0303 0.904998 17.3487 -0.520821 22.6077 0.170834L22.2261 3.07267Z" fill="#202225"/>
<path fill-rule="evenodd" clip-rule="evenodd" d="M31.5334 7.41144C29.5892 5.63021 27.2589 4.3235 24.7251 3.59376L25.5351 0.78125C28.5033 1.6361 31.2331 3.16681 33.5106 5.25339L31.5334 7.41144Z" fill="#202225"/>
</svg>
