<svg width="24" height="24" viewBox="0 0 24 24" fill="none" xmlns="http://www.w3.org/2000/svg">
<path d="M22 9V6C22 4.89543 21.1046 4 20 4H4C2.89543 4 2 4.89543 2 6V18C2 19.1046 2.89543 20 4 20H20C21.1046 20 22 19.1046 22 18V15" stroke="#EF6100" stroke-width="2" stroke-linecap="round" stroke-linejoin="round"/>
<path fill-rule="evenodd" clip-rule="evenodd" d="M22 10H15V14H22V10ZM15 8C13.8954 8 13 8.89543 13 10V14C13 15.1046 13.8954 16 15 16H22C23.1046 16 24 15.1046 24 14V10C24 8.89543 23.1046 8 22 8H15Z" fill="#EF6100"/>
</svg>
