<svg width="191" height="40" viewBox="0 0 191 40" fill="none" xmlns="http://www.w3.org/2000/svg">
<path d="M60.5276 25.3171H65.9228V28.5366H56.4089V11.4146H60.5276V25.3171Z" fill="white"/>
<path d="M74.0051 28.7317C72.6884 28.7317 71.5002 28.4471 70.4404 27.878C69.3967 27.3089 68.5697 26.4959 67.9596 25.439C67.3654 24.3821 67.0684 23.1463 67.0684 21.7317C67.0684 20.3333 67.3735 19.1057 67.9836 18.0488C68.5938 16.9756 69.4288 16.1545 70.4886 15.5854C71.5483 15.0162 72.7366 14.7317 74.0533 14.7317C75.3699 14.7317 76.5582 15.0162 77.6179 15.5854C78.6777 16.1545 79.5127 16.9756 80.1229 18.0488C80.733 19.1057 81.0381 20.3333 81.0381 21.7317C81.0381 23.1301 80.725 24.3658 80.0988 25.439C79.4886 26.4959 78.6456 27.3089 77.5698 27.878C76.51 28.4471 75.3218 28.7317 74.0051 28.7317ZM74.0051 25.1219C74.7919 25.1219 75.4583 24.8293 76.0042 24.2439C76.5662 23.6585 76.8472 22.8211 76.8472 21.7317C76.8472 20.6423 76.5742 19.8049 76.0283 19.2195C75.4984 18.6341 74.8401 18.3415 74.0533 18.3415C73.2504 18.3415 72.584 18.6341 72.0541 19.2195C71.5242 19.7886 71.2593 20.626 71.2593 21.7317C71.2593 22.8211 71.5162 23.6585 72.03 24.2439C72.5599 24.8293 73.2183 25.1219 74.0051 25.1219Z" fill="white"/>
<path d="M82.4042 21.7317C82.4042 20.3171 82.6852 19.0813 83.2472 18.0244C83.8253 16.9675 84.6201 16.1545 85.6317 15.5854C86.6594 15.0162 87.8316 14.7317 89.1482 14.7317C90.8342 14.7317 92.2392 15.1788 93.3632 16.0732C94.5033 16.9675 95.25 18.2276 95.6032 19.8536H91.2196C90.8503 18.813 90.1358 18.2927 89.076 18.2927C88.3213 18.2927 87.7192 18.5935 87.2696 19.1951C86.82 19.7805 86.5952 20.626 86.5952 21.7317C86.5952 22.8374 86.82 23.691 87.2696 24.2927C87.7192 24.878 88.3213 25.1707 89.076 25.1707C90.1358 25.1707 90.8503 24.6504 91.2196 23.6097H95.6032C95.25 25.2032 94.5033 26.4553 93.3632 27.3658C92.2232 28.2764 90.8182 28.7317 89.1482 28.7317C87.8316 28.7317 86.6594 28.4471 85.6317 27.878C84.6201 27.3089 83.8253 26.4959 83.2472 25.439C82.6852 24.3821 82.4042 23.1463 82.4042 21.7317Z" fill="white"/>
<path d="M96.9874 21.7073C96.9874 20.3089 97.2443 19.0813 97.7581 18.0244C98.288 16.9675 99.0026 16.1545 99.9018 15.5854C100.801 15.0162 101.805 14.7317 102.912 14.7317C103.86 14.7317 104.687 14.9268 105.393 15.3171C106.116 15.7073 106.67 16.2195 107.055 16.8536V14.9268H111.174V28.5366H107.055V26.6097C106.654 27.2439 106.092 27.7561 105.369 28.1463C104.663 28.5366 103.836 28.7317 102.888 28.7317C101.797 28.7317 100.801 28.4471 99.9018 27.878C99.0026 27.2927 98.288 26.4715 97.7581 25.4146C97.2443 24.3415 96.9874 23.1057 96.9874 21.7073ZM107.055 21.7317C107.055 20.691 106.766 19.8699 106.188 19.2683C105.626 18.6667 104.936 18.3658 104.117 18.3658C103.298 18.3658 102.599 18.6667 102.021 19.2683C101.459 19.8536 101.178 20.6667 101.178 21.7073C101.178 22.748 101.459 23.5772 102.021 24.1951C102.599 24.7967 103.298 25.0975 104.117 25.0975C104.936 25.0975 105.626 24.7967 106.188 24.1951C106.766 23.5935 107.055 22.7723 107.055 21.7317Z" fill="white"/>
<path d="M118.272 10.4878V28.5366H114.154V10.4878H118.272Z" fill="white"/>
<path d="M138.524 11.4146V14.7561H134.044V28.5366H129.926V14.7561H125.446V11.4146H138.524Z" fill="white"/>
<path d="M153.261 21.5122C153.261 21.9024 153.236 22.3089 153.188 22.7317H143.867C143.931 23.5772 144.196 24.2276 144.662 24.6829C145.144 25.1219 145.73 25.3415 146.42 25.3415C147.448 25.3415 148.162 24.9024 148.564 24.0244H152.947C152.723 24.9187 152.313 25.7236 151.719 26.439C151.141 27.1545 150.41 27.7154 149.527 28.1219C148.644 28.5284 147.657 28.7317 146.565 28.7317C145.248 28.7317 144.076 28.4471 143.048 27.878C142.021 27.3089 141.218 26.4959 140.64 25.439C140.062 24.3821 139.773 23.1463 139.773 21.7317C139.773 20.3171 140.054 19.0813 140.616 18.0244C141.194 16.9675 141.996 16.1545 143.024 15.5854C144.052 15.0162 145.232 14.7317 146.565 14.7317C147.865 14.7317 149.021 15.0081 150.033 15.561C151.045 16.1138 151.831 16.9024 152.393 17.9268C152.972 18.9512 153.261 20.1463 153.261 21.5122ZM149.046 20.4146C149.046 19.6992 148.805 19.1301 148.323 18.7073C147.841 18.2845 147.239 18.0732 146.517 18.0732C145.826 18.0732 145.24 18.2764 144.758 18.6829C144.293 19.0894 144.004 19.6667 143.891 20.4146H149.046Z" fill="white"/>
<path d="M159.552 17.1951C160.034 16.4471 160.636 15.8618 161.358 15.439C162.081 15 162.884 14.7805 163.767 14.7805V19.1951H162.635C161.607 19.1951 160.837 19.4228 160.323 19.878C159.809 20.3171 159.552 21.0975 159.552 22.2195V28.5366H155.433V14.9268H159.552V17.1951Z" fill="white"/>
<path d="M169.854 17.1951C170.336 16.4471 170.938 15.8618 171.661 15.439C172.383 15 173.186 14.7805 174.069 14.7805V19.1951H172.937C171.91 19.1951 171.139 19.4228 170.625 19.878C170.111 20.3171 169.854 21.0975 169.854 22.2195V28.5366H165.736V14.9268H169.854V17.1951Z" fill="white"/>
<path d="M175.219 21.7073C175.219 20.3089 175.476 19.0813 175.99 18.0244C176.52 16.9675 177.234 16.1545 178.133 15.5854C179.033 15.0162 180.036 14.7317 181.144 14.7317C182.092 14.7317 182.918 14.9268 183.625 15.3171C184.348 15.7073 184.901 16.2195 185.287 16.8536V14.9268H189.406V28.5366H185.287V26.6097C184.885 27.2439 184.323 27.7561 183.601 28.1463C182.894 28.5366 182.067 28.7317 181.12 28.7317C180.028 28.7317 179.033 28.4471 178.133 27.878C177.234 27.2927 176.52 26.4715 175.99 25.4146C175.476 24.3415 175.219 23.1057 175.219 21.7073ZM185.287 21.7317C185.287 20.691 184.998 19.8699 184.42 19.2683C183.858 18.6667 183.167 18.3658 182.348 18.3658C181.53 18.3658 180.831 18.6667 180.253 19.2683C179.691 19.8536 179.41 20.6667 179.41 21.7073C179.41 22.748 179.691 23.5772 180.253 24.1951C180.831 24.7967 181.53 25.0975 182.348 25.0975C183.167 25.0975 183.858 24.7967 184.42 24.1951C184.998 23.5935 185.287 22.7723 185.287 21.7317Z" fill="white"/>
<path d="M33.5045 19.9038C33.5045 27.6492 27.304 33.9282 19.6552 33.9282C12.0065 33.9282 5.80591 27.6492 5.80591 19.9038C5.80591 12.1583 12.0065 5.87939 19.6552 5.87939C27.304 5.87939 33.5045 12.1583 33.5045 19.9038Z" fill="#FBA367"/>
<path fill-rule="evenodd" clip-rule="evenodd" d="M14.2106 6.95282C15.8656 6.24507 17.6848 5.85376 19.5943 5.85376C27.2431 5.85376 33.4436 12.1327 33.4436 19.8782C33.4436 27.6236 27.2431 33.9025 19.5943 33.9025C17.6848 33.9025 15.8656 33.5112 14.2106 32.8035C19.1851 30.6762 22.6763 25.69 22.6763 19.8781C22.6763 14.0663 19.1851 9.08014 14.2106 6.95282Z" fill="#EF6100"/>
<path fill-rule="evenodd" clip-rule="evenodd" d="M19.6298 7.0733C12.6461 7.0733 6.98475 12.8062 6.98475 19.8782C6.98475 26.9501 12.6461 32.6831 19.6298 32.6831C26.6134 32.6831 32.2748 26.9501 32.2748 19.8782C32.2748 12.8062 26.6134 7.0733 19.6298 7.0733ZM4.57617 19.8782C4.57617 11.4592 11.3159 4.63428 19.6298 4.63428C27.9436 4.63428 34.6834 11.4592 34.6834 19.8782C34.6834 28.2972 27.9436 35.1221 19.6298 35.1221C11.3159 35.1221 4.57617 28.2972 4.57617 19.8782Z" fill="#202225"/>
<path fill-rule="evenodd" clip-rule="evenodd" d="M36.0646 15.692C35.4394 13.2641 34.2934 11.0057 32.7083 9.07734L34.9296 7.20483C36.7865 9.46376 38.129 12.1094 38.8614 14.9534C39.5938 17.7974 39.6982 20.77 39.1672 23.6595L36.3257 23.124C36.779 20.6573 36.6899 18.1198 36.0646 15.692Z" fill="white"/>
<path fill-rule="evenodd" clip-rule="evenodd" d="M28.4065 34.6513C31.6717 32.6731 34.1801 29.6347 35.5239 26.0299L38.2279 27.0636C36.6537 31.2863 33.7153 34.8456 29.8904 37.163L28.4065 34.6513Z" fill="white"/>
<path fill-rule="evenodd" clip-rule="evenodd" d="M4.55968 27.4073C6.43274 31.3464 9.72667 34.4078 13.7626 35.9604C17.7985 37.5131 22.2688 37.4388 26.2522 35.7528L27.3668 38.4533C22.7006 40.4283 17.4639 40.5153 12.7361 38.6965C8.00833 36.8776 4.14972 33.2915 1.95557 28.6771L4.55968 27.4073Z" fill="white"/>
<path fill-rule="evenodd" clip-rule="evenodd" d="M2.91709 19.0379C2.80662 21.0195 3.03821 23.0055 3.60147 24.9066L0.833101 25.7477C0.173281 23.5207 -0.0980158 21.1943 0.0313983 18.8729L2.91709 19.0379Z" fill="white"/>
<path fill-rule="evenodd" clip-rule="evenodd" d="M7.29557 8.49264C5.47255 10.5159 4.15697 12.9536 3.45988 15.6L0.667236 14.8456C1.48383 11.7456 3.02494 8.89 5.16048 6.5199L7.29557 8.49264Z" fill="white"/>
<path fill-rule="evenodd" clip-rule="evenodd" d="M21.9486 3.0728C17.5152 2.48236 13.0318 3.69952 9.48466 6.45652L7.72485 4.13475C11.8801 0.90512 17.1321 -0.520699 22.3255 0.170957L21.9486 3.0728Z" fill="white"/>
<path fill-rule="evenodd" clip-rule="evenodd" d="M31.1398 7.41156C29.2199 5.63034 26.9187 4.32363 24.4165 3.59388L25.2164 0.781372C28.1475 1.63622 30.8433 3.16693 33.0923 5.25352L31.1398 7.41156Z" fill="white"/>
</svg>
