<svg width="191" height="40" viewBox="0 0 191 40" fill="none" xmlns="http://www.w3.org/2000/svg">
<path d="M60.1707 25.3171H65.6341V28.5366H56V11.4146H60.1707V25.3171Z" fill="#202225"/>
<path d="M73.8186 28.7317C72.4853 28.7317 71.282 28.4471 70.2088 27.878C69.1519 27.3089 68.3145 26.4959 67.6966 25.439C67.095 24.3821 66.7942 23.1463 66.7942 21.7317C66.7942 20.3333 67.1031 19.1057 67.721 18.0488C68.3389 16.9756 69.1844 16.1545 70.2576 15.5854C71.3308 15.0162 72.534 14.7317 73.8674 14.7317C75.2007 14.7317 76.404 15.0162 77.4771 15.5854C78.5503 16.1545 79.3958 16.9756 80.0137 18.0488C80.6316 19.1057 80.9405 20.3333 80.9405 21.7317C80.9405 23.1301 80.6235 24.3658 79.9893 25.439C79.3714 26.4959 78.5178 27.3089 77.4284 27.878C76.3552 28.4471 75.1519 28.7317 73.8186 28.7317ZM73.8186 25.1219C74.6153 25.1219 75.2901 24.8293 75.843 24.2439C76.4121 23.6585 76.6966 22.8211 76.6966 21.7317C76.6966 20.6423 76.4202 19.8049 75.8674 19.2195C75.3308 18.6341 74.6641 18.3415 73.8674 18.3415C73.0544 18.3415 72.3796 18.6341 71.843 19.2195C71.3064 19.7886 71.0381 20.626 71.0381 21.7317C71.0381 22.8211 71.2983 23.6585 71.8186 24.2439C72.3552 24.8293 73.0218 25.1219 73.8186 25.1219Z" fill="#202225"/>
<path d="M82.3239 21.7317C82.3239 20.3171 82.6085 19.0813 83.1776 18.0244C83.763 16.9675 84.5678 16.1545 85.5922 15.5854C86.6329 15.0162 87.8199 14.7317 89.1532 14.7317C90.8605 14.7317 92.2833 15.1788 93.4215 16.0732C94.576 16.9675 95.3321 18.2276 95.6898 19.8536H91.2508C90.8768 18.813 90.1532 18.2927 89.08 18.2927C88.3158 18.2927 87.706 18.5935 87.2508 19.1951C86.7955 19.7805 86.5678 20.626 86.5678 21.7317C86.5678 22.8374 86.7955 23.691 87.2508 24.2927C87.706 24.878 88.3158 25.1707 89.08 25.1707C90.1532 25.1707 90.8768 24.6504 91.2508 23.6097H95.6898C95.3321 25.2032 94.576 26.4553 93.4215 27.3658C92.267 28.2764 90.8443 28.7317 89.1532 28.7317C87.8199 28.7317 86.6329 28.4471 85.5922 27.878C84.5678 27.3089 83.763 26.4959 83.1776 25.439C82.6085 24.3821 82.3239 23.1463 82.3239 21.7317Z" fill="#202225"/>
<path d="M97.0915 21.7073C97.0915 20.3089 97.3516 19.0813 97.8719 18.0244C98.4085 16.9675 99.1321 16.1545 100.043 15.5854C100.953 15.0162 101.97 14.7317 103.091 14.7317C104.051 14.7317 104.888 14.9268 105.604 15.3171C106.335 15.7073 106.896 16.2195 107.287 16.8536V14.9268H111.457V28.5366H107.287V26.6097C106.88 27.2439 106.311 27.7561 105.579 28.1463C104.864 28.5366 104.026 28.7317 103.067 28.7317C101.961 28.7317 100.953 28.4471 100.043 27.878C99.1321 27.2927 98.4085 26.4715 97.8719 25.4146C97.3516 24.3415 97.0915 23.1057 97.0915 21.7073ZM107.287 21.7317C107.287 20.691 106.994 19.8699 106.409 19.2683C105.839 18.6667 105.14 18.3658 104.311 18.3658C103.482 18.3658 102.774 18.6667 102.189 19.2683C101.62 19.8536 101.335 20.6667 101.335 21.7073C101.335 22.748 101.62 23.5772 102.189 24.1951C102.774 24.7967 103.482 25.0975 104.311 25.0975C105.14 25.0975 105.839 24.7967 106.409 24.1951C106.994 23.5935 107.287 22.7723 107.287 21.7317Z" fill="#202225"/>
<path d="M118.645 10.4878V28.5366H114.475V10.4878H118.645Z" fill="#202225"/>
<path d="M139.154 11.4146V14.7561H134.617V28.5366H130.446V14.7561H125.91V11.4146H139.154Z" fill="#202225"/>
<path d="M154.076 21.5122C154.076 21.9024 154.052 22.3089 154.003 22.7317H144.564C144.629 23.5772 144.897 24.2276 145.369 24.6829C145.857 25.1219 146.45 25.3415 147.149 25.3415C148.19 25.3415 148.913 24.9024 149.32 24.0244H153.759C153.531 24.9187 153.117 25.7236 152.515 26.439C151.93 27.1545 151.19 27.7154 150.296 28.1219C149.401 28.5284 148.401 28.7317 147.296 28.7317C145.962 28.7317 144.775 28.4471 143.735 27.878C142.694 27.3089 141.881 26.4959 141.296 25.439C140.71 24.3821 140.417 23.1463 140.417 21.7317C140.417 20.3171 140.702 19.0813 141.271 18.0244C141.857 16.9675 142.67 16.1545 143.71 15.5854C144.751 15.0162 145.946 14.7317 147.296 14.7317C148.613 14.7317 149.783 15.0081 150.808 15.561C151.832 16.1138 152.629 16.9024 153.198 17.9268C153.783 18.9512 154.076 20.1463 154.076 21.5122ZM149.808 20.4146C149.808 19.6992 149.564 19.1301 149.076 18.7073C148.588 18.2845 147.978 18.0732 147.247 18.0732C146.548 18.0732 145.954 18.2764 145.466 18.6829C144.995 19.0894 144.702 19.6667 144.588 20.4146H149.808Z" fill="#202225"/>
<path d="M160.447 17.1951C160.935 16.4471 161.545 15.8618 162.276 15.439C163.008 15 163.821 14.7805 164.715 14.7805V19.1951H163.569C162.528 19.1951 161.748 19.4228 161.228 19.878C160.707 20.3171 160.447 21.0975 160.447 22.2195V28.5366H156.276V14.9268H160.447V17.1951Z" fill="#202225"/>
<path d="M170.88 17.1951C171.367 16.4471 171.977 15.8618 172.709 15.439C173.441 15 174.254 14.7805 175.148 14.7805V19.1951H174.002C172.961 19.1951 172.18 19.4228 171.66 19.878C171.14 20.3171 170.88 21.0975 170.88 22.2195V28.5366H166.709V14.9268H170.88V17.1951Z" fill="#202225"/>
<path d="M176.312 21.7073C176.312 20.3089 176.572 19.0813 177.093 18.0244C177.629 16.9675 178.353 16.1545 179.263 15.5854C180.174 15.0162 181.19 14.7317 182.312 14.7317C183.271 14.7317 184.109 14.9268 184.824 15.3171C185.556 15.7073 186.117 16.2195 186.507 16.8536V14.9268H190.678V28.5366H186.507V26.6097C186.101 27.2439 185.532 27.7561 184.8 28.1463C184.084 28.5366 183.247 28.7317 182.288 28.7317C181.182 28.7317 180.174 28.4471 179.263 27.878C178.353 27.2927 177.629 26.4715 177.093 25.4146C176.572 24.3415 176.312 23.1057 176.312 21.7073ZM186.507 21.7317C186.507 20.691 186.215 19.8699 185.629 19.2683C185.06 18.6667 184.361 18.3658 183.532 18.3658C182.702 18.3658 181.995 18.6667 181.41 19.2683C180.841 19.8536 180.556 20.6667 180.556 21.7073C180.556 22.748 180.841 23.5772 181.41 24.1951C181.995 24.7967 182.702 25.0975 183.532 25.0975C184.361 25.0975 185.06 24.7967 185.629 24.1951C186.215 23.5935 186.507 22.7723 186.507 21.7317Z" fill="#202225"/>
<path d="M34.121 20.0002C34.121 27.7989 27.7989 34.121 20.0002 34.121C12.2015 34.121 5.87939 27.7989 5.87939 20.0002C5.87939 12.2015 12.2015 5.87939 20.0002 5.87939C27.7989 5.87939 34.121 12.2015 34.121 20.0002Z" fill="#FBA367"/>
<path fill-rule="evenodd" clip-rule="evenodd" d="M14.3988 6.99163C16.0862 6.27901 17.9411 5.88501 19.888 5.88501C27.6867 5.88501 34.0088 12.2071 34.0088 20.0058C34.0088 27.8045 27.6867 34.1266 19.888 34.1266C17.9411 34.1266 16.0862 33.7326 14.3988 33.02C19.4708 30.878 23.0304 25.8576 23.0304 20.0058C23.0304 14.154 19.4708 9.13357 14.3988 6.99163Z" fill="#EF6100"/>
<path fill-rule="evenodd" clip-rule="evenodd" d="M20.0001 31.2196C26.1965 31.2196 31.2196 26.1965 31.2196 20.0001C31.2196 13.8037 26.1965 8.78059 20.0001 8.78059C13.8037 8.78059 8.78059 13.8037 8.78059 20.0001C8.78059 26.1965 13.8037 31.2196 20.0001 31.2196ZM20.0001 34.1464C27.8129 34.1464 34.1464 27.8129 34.1464 20.0001C34.1464 12.1873 27.8129 5.85376 20.0001 5.85376C12.1873 5.85376 5.85376 12.1873 5.85376 20.0001C5.85376 27.8129 12.1873 34.1464 20.0001 34.1464Z" fill="#202225"/>
<path fill-rule="evenodd" clip-rule="evenodd" d="M36.5206 15.6918C35.8875 13.264 34.727 11.0056 33.1218 9.07721L35.3713 7.20471C37.2517 9.46364 38.6111 12.1092 39.3527 14.9533C40.0944 17.7973 40.2001 20.7698 39.6624 23.6594L36.785 23.1239C37.244 20.6572 37.1538 18.1197 36.5206 15.6918Z" fill="#202225"/>
<path fill-rule="evenodd" clip-rule="evenodd" d="M28.7656 34.6512C32.0721 32.673 34.6122 29.6345 35.973 26.0298L38.7112 27.0635C37.1171 31.2862 34.1416 34.8455 30.2683 37.1628L28.7656 34.6512Z" fill="#202225"/>
<path fill-rule="evenodd" clip-rule="evenodd" d="M4.61726 27.4072C6.514 31.3463 9.84957 34.4076 13.9365 35.9603C18.0234 37.513 22.5503 37.4387 26.5841 35.7527L27.7128 38.4531C22.9875 40.4282 17.6846 40.5152 12.8971 38.6964C8.1095 36.8775 4.20212 33.2913 1.98022 28.677L4.61726 27.4072Z" fill="#202225"/>
<path fill-rule="evenodd" clip-rule="evenodd" d="M2.95397 19.0378C2.8421 21.0194 3.07662 23.0054 3.647 24.9065L0.843633 25.7476C0.175472 23.5206 -0.0992549 21.1942 0.0317952 18.8728L2.95397 19.0378Z" fill="#202225"/>
<path fill-rule="evenodd" clip-rule="evenodd" d="M7.38791 8.49239C5.54185 10.5157 4.20964 12.9533 3.50373 15.5997L0.675781 14.8454C1.5027 11.7453 3.06329 8.88976 5.22583 6.51965L7.38791 8.49239Z" fill="#202225"/>
<path fill-rule="evenodd" clip-rule="evenodd" d="M22.2261 3.07267C17.7367 2.48224 13.1966 3.6994 9.60456 6.4564L7.82251 4.13463C12.0303 0.904998 17.3487 -0.520821 22.6077 0.170834L22.2261 3.07267Z" fill="#202225"/>
<path fill-rule="evenodd" clip-rule="evenodd" d="M31.5334 7.41156C29.5892 5.63033 27.2589 4.32363 24.7251 3.59388L25.5351 0.781372C28.5033 1.63622 31.2331 3.16693 33.5106 5.25352L31.5334 7.41156Z" fill="#202225"/>
</svg>
