<svg width="24" height="24" viewBox="0 0 24 24" fill="none" xmlns="http://www.w3.org/2000/svg">
<g clip-path="url(#clip0_413_43)">
<path d="M12 24C18.6274 24 24 18.6274 24 12C24 5.37258 18.6274 0 12 0C5.37258 0 0 5.37258 0 12C0 18.6274 5.37258 24 12 24Z" fill="#22242F"/>
<path d="M12 0.479996C18.3623 0.479996 23.52 5.63768 23.52 12C23.52 18.3623 18.3623 23.52 12 23.52C5.63769 23.52 0.480011 18.3623 0.480011 12C0.480011 5.63768 5.63769 0.479996 12 0.479996ZM12 1.29317C6.0868 1.29317 1.29319 6.08678 1.29319 12C1.29319 17.9132 6.0868 22.7068 12 22.7068C17.9132 22.7068 22.7068 17.9132 22.7068 12C22.7068 6.08678 17.9132 1.29317 12 1.29317Z" fill="#E53935"/>
<path d="M19.2602 7.45997V6.41351H15.9454C15.7676 5.73734 15.5897 5.14166 15.3956 4.59428L14.2799 4.78748C14.474 5.27046 14.668 5.81784 14.8459 6.41351H11.3371V7.45997H19.2602ZM10.7711 15.236V8.55473H9.13798C9.47754 8.05565 9.81711 7.44387 10.1567 6.7033V5.93053H7.48867C7.6342 5.60855 7.76356 5.28656 7.89291 4.94847L6.85806 4.62648C6.37296 6.20422 5.61299 7.47607 4.5943 8.45814L4.83684 9.60119C5.04705 9.408 5.25726 9.21481 5.45129 9.00551V15.236H10.7711ZM8.02227 8.55473H5.85553C6.27595 8.03955 6.68019 7.45997 7.03592 6.8482H9.0733C8.71757 7.49217 8.378 8.07175 8.02227 8.55473ZM14.6842 19.4057C15.4927 19.4057 15.9131 18.9549 15.9131 18.0695V13.4811H18.4841V8.90892H12.194V13.4811H14.7812V17.7958C14.7812 18.1983 14.6195 18.4076 14.2961 18.4076C13.9242 18.4076 13.5361 18.3754 13.1481 18.3271L13.3744 19.4057H14.6842ZM7.65037 11.4204H6.45381V9.5046H7.65037V11.4204ZM9.7686 11.4204H8.58821V9.5046H9.7686V11.4204ZM17.3845 12.4669H13.2936V9.93928H17.3845V12.4669ZM9.7686 14.27H8.58821V12.3542H9.7686V14.27ZM7.65037 14.27H6.45381V12.3542H7.65037V14.27ZM18.5487 18.6651L19.4057 18.0695C18.9691 17.0391 18.3547 15.8478 17.5462 14.4793L16.6892 14.9945C17.4654 16.3307 18.096 17.5543 18.5487 18.6651ZM11.7736 18.9388C12.4851 17.828 13.0996 16.5078 13.617 14.9945L12.6791 14.5437C12.1779 15.9926 11.5796 17.2484 10.9005 18.311L11.7736 18.9388ZM10.4316 17.8441L11.2239 17.6509C10.9975 16.8781 10.7711 16.2019 10.5124 15.6224L9.75243 15.8477C10.0111 16.4917 10.2375 17.1518 10.4316 17.8441ZM8.71757 18.7778L9.55839 18.6812C9.46137 17.4577 9.28351 16.4917 9.02479 15.7834L8.21631 15.8799C8.47502 16.5561 8.63672 17.5221 8.71757 18.7778ZM5.62916 19.2125C5.96872 18.2627 6.17893 17.184 6.27595 15.9604L5.40278 15.8477C5.32194 17.0069 5.09556 18.0373 4.73983 18.9388L5.62916 19.2125ZM6.98741 19.0193L7.82824 18.9227C7.7959 17.6509 7.71505 16.6366 7.60186 15.896L6.82572 15.9926C6.90656 16.701 6.95507 17.7153 6.98741 19.0193Z" fill="#E53935"/>
</g>
<defs>
<clipPath id="clip0_413_43">
<rect width="24" height="24" fill="white"/>
</clipPath>
</defs>
</svg>
