<svg width="24" height="24" viewBox="0 0 24 24" fill="none" xmlns="http://www.w3.org/2000/svg">
<g clip-path="url(#clip0_414_16)">
<path d="M11.9998 24C14.3732 24 16.6933 23.2962 18.6667 21.9776C20.6401 20.659 22.1781 18.7849 23.0864 16.5922C23.9946 14.3995 24.2323 11.9867 23.7692 9.65889C23.3062 7.33112 22.1633 5.19292 20.4851 3.51469C18.8069 1.83646 16.6687 0.693574 14.3409 0.230551C12.0131 -0.232471 9.60033 0.00516887 7.40762 0.91342C5.21491 1.82167 3.34076 3.35974 2.02219 5.33313C0.703609 7.30652 -0.000178677 9.6266 -0.000178677 12C-0.00398884 13.5769 0.3038 15.1391 0.905506 16.5967C1.50721 18.0543 2.39098 19.3787 3.50604 20.4938C4.62111 21.6088 5.94549 22.4926 7.40312 23.0943C8.86074 23.696 10.4229 24.0038 11.9998 24Z" fill="#2775CA"/>
<path d="M15.3 13.9001C15.3 12.1501 14.2501 11.5501 12.1501 11.3C10.6502 11.1002 10.3505 10.7 10.3505 10C10.3505 9.30002 10.8506 8.85011 11.8503 8.85011C12.7502 8.85011 13.2508 9.14989 13.5003 9.90007C13.5265 9.97239 13.574 10.0351 13.6366 10.0797C13.6992 10.1244 13.7739 10.1489 13.8508 10.1501H14.6507C14.697 10.1512 14.743 10.1429 14.7859 10.1257C14.8289 10.1085 14.8679 10.0828 14.9006 10.0501C14.9334 10.0174 14.9591 9.97833 14.9763 9.93537C14.9935 9.89241 15.0018 9.8464 15.0007 9.80014V9.74994C14.9039 9.20811 14.6308 8.71343 14.2239 8.34276C13.8171 7.9721 13.2991 7.74622 12.7506 7.70021V6.50012C12.7506 6.30026 12.6005 6.15013 12.3505 6.09993H11.6003C11.3999 6.09993 11.2503 6.25006 11.2001 6.50012V7.65001C9.70021 7.84987 8.75017 8.85011 8.75017 10.0999C8.75017 11.7499 9.74993 12.4002 11.8499 12.6502C13.2503 12.8998 13.7002 13.2001 13.7002 14C13.7002 14.7999 13.0002 15.3502 12.0502 15.3502C10.7502 15.3502 10.2979 14.7999 10.1501 14.0502C10.0999 13.8503 9.95027 13.7499 9.80014 13.7499H8.95098C8.90471 13.7488 8.85871 13.7571 8.81575 13.7743C8.77279 13.7915 8.73376 13.8173 8.70104 13.85C8.66832 13.8827 8.64258 13.9217 8.62538 13.9647C8.60818 14.0077 8.59989 14.0537 8.60099 14.0999V14.1501C8.80085 15.4 9.60122 16.3003 11.2531 16.5503V17.7499C11.2531 17.9503 11.4028 18.0999 11.6528 18.1501H12.403C12.6029 18.1501 12.753 18 12.8027 17.7499V16.5503C14.3031 16.3003 15.3029 15.2498 15.3029 13.8982L15.3 13.9001Z" fill="white"/>
<path d="M9.45016 19.1499C5.55009 17.7499 3.55009 13.3999 4.99835 9.55008C5.74805 7.45015 7.39806 5.84987 9.45016 5.09827C9.65002 4.99834 9.74994 4.84821 9.74994 4.59815V3.90007C9.74994 3.70021 9.65002 3.55008 9.45016 3.49988C9.39996 3.49988 9.30003 3.49988 9.24983 3.55008C4.49918 5.04996 1.90008 10.0999 3.39996 14.8501C3.83569 16.2222 4.59442 17.4696 5.61237 18.4876C6.63032 19.5055 7.87775 20.2642 9.24983 20.7C9.45016 20.7999 9.65002 20.7 9.70022 20.5001C9.74995 20.4499 9.74994 20.4002 9.74994 20.3003V19.6003C9.74994 19.4502 9.60029 19.2503 9.45016 19.1499ZM14.7502 3.55197C14.5499 3.45204 14.35 3.55197 14.3003 3.75183C14.2501 3.80203 14.2501 3.85176 14.2501 3.95216V4.65025C14.2501 4.8501 14.4002 5.04996 14.5499 5.14989C18.4499 6.54984 20.4499 10.8998 19.0017 14.7502C18.2515 16.8501 16.6015 18.4499 14.5499 19.202C14.35 19.3019 14.2501 19.452 14.2501 19.7021V20.4021C14.2501 20.6019 14.35 20.7521 14.5499 20.8018C14.6001 20.8018 14.7 20.8018 14.7502 20.7521C19.4999 19.2503 22.0999 14.1999 20.6015 9.45015C20.1667 8.07189 19.4089 6.8175 18.3911 5.79152C17.3732 4.76554 16.1249 3.99769 14.7502 3.55197Z" fill="white"/>
</g>
<defs>
<clipPath id="clip0_414_16">
<rect width="24" height="24" fill="white"/>
</clipPath>
</defs>
</svg>
