<svg width="24" height="24" viewBox="0 0 24 24" fill="none" xmlns="http://www.w3.org/2000/svg">
<g clip-path="url(#clip0_413_39)">
<path d="M12 24C18.6274 24 24 18.6274 24 12C24 5.37258 18.6274 0 12 0C5.37258 0 0 5.37258 0 12C0 18.6274 5.37258 24 12 24Z" fill="url(#paint0_linear_413_39)"/>
<path d="M10.4351 12.3229V12.4752C10.4351 14.6587 10.4351 16.8422 10.4351 19.0257C10.4351 19.1974 10.4349 19.1978 10.2612 19.1978C9.64543 19.1979 9.02961 19.198 8.41379 19.1977C8.27073 19.1977 8.26598 19.1929 8.26598 19.0502C8.26577 17.6925 8.26589 16.3348 8.26577 14.9771C8.26572 14.8142 8.25795 14.8088 8.10076 14.8427C7.2123 15.0346 6.31359 15.1315 5.40462 15.1379C5.30553 15.1385 5.27968 15.1046 5.28014 15.0101C5.28342 14.3733 5.28338 13.7365 5.28022 13.0996C5.27976 13.0055 5.30734 12.9699 5.405 12.969C6.37514 12.9596 7.33157 12.8362 8.26295 12.5654C8.74865 12.4242 9.21985 12.2329 9.69718 12.0632C9.72812 12.0522 9.7557 12.032 9.80808 12.0033C9.75229 11.9722 9.71963 11.9499 9.68398 11.9346C8.92926 11.6108 8.14864 11.3743 7.3407 11.2238C6.70256 11.1049 6.05958 11.0451 5.41177 11.0323C5.31146 11.0304 5.27943 11.0004 5.28001 10.8997C5.28371 10.2629 5.28329 9.62603 5.28039 8.98915C5.28001 8.89443 5.31037 8.85815 5.40744 8.86055C6.01636 8.87564 6.62381 8.90965 7.22588 9.00597C7.5398 9.05617 7.85217 9.1162 8.16453 9.17539C8.25009 9.19162 8.26694 9.15521 8.26661 9.08063C8.26484 8.65026 8.26581 8.21984 8.26585 7.78943C8.26585 6.84464 8.26577 5.89985 8.26594 4.95511C8.26598 4.80326 8.26648 4.80292 8.41762 4.80288C9.04395 4.80279 9.67023 4.80271 10.2966 4.80292C10.4343 4.803 10.435 4.80355 10.435 4.94472C10.4351 6.54737 10.4361 8.15001 10.4327 9.75262C10.4325 9.85688 10.4693 9.90384 10.5609 9.94828C11.017 10.1695 11.4703 10.3966 11.9206 10.6294C12.0077 10.6744 12.0644 10.6775 12.1433 10.615C14.0193 9.13037 15.3041 7.24462 15.9868 4.95124C16.0212 4.8358 16.0701 4.79893 16.1894 4.8C16.8332 4.80595 17.477 4.80271 18.1209 4.803C18.2608 4.80305 18.2738 4.81944 18.2402 4.95469C17.5551 7.71014 16.1399 10.02 14.0062 11.8911C13.8794 12.0023 13.879 12.0017 14.0082 12.1146C15.8494 13.7233 17.1661 15.6829 17.9389 18.0038C18.0537 18.3485 18.1423 18.7019 18.24 19.0521C18.2754 19.1791 18.2582 19.1975 18.1227 19.1976C17.4684 19.1981 16.8141 19.1959 16.1598 19.2C16.0597 19.2006 16.0205 19.1621 15.9928 19.0706C15.092 16.1021 13.2801 13.8694 10.5699 12.3635C10.5425 12.3484 10.5137 12.3354 10.4848 12.3234C10.4761 12.3198 10.4646 12.3229 10.4351 12.3229Z" fill="url(#paint1_radial_413_39)"/>
</g>
<defs>
<linearGradient id="paint0_linear_413_39" x1="2350.34" y1="49.6581" x2="99.5248" y2="2300.48" gradientUnits="userSpaceOnUse">
<stop stop-color="#282A2D"/>
<stop offset="1" stop-color="#354252"/>
</linearGradient>
<radialGradient id="paint1_radial_413_39" cx="0" cy="0" r="1" gradientUnits="userSpaceOnUse" gradientTransform="translate(1729.43 -628.427) rotate(-91.6009) scale(1423.83 1775.2)">
<stop stop-color="#1E89DD"/>
<stop offset="1" stop-color="#60FBD0"/>
</radialGradient>
<clipPath id="clip0_413_39">
<rect width="24" height="24" fill="white"/>
</clipPath>
</defs>
</svg>
